<?xml version="1.0" encoding="iso-8859-1"?>
<!-- Uploaded to: SVG Repo, www.svgrepo.com, Generator: SVG Repo Mixer Tools -->
<svg height="800px" width="800px" version="1.1" id="Layer_1" xmlns="http://www.w3.org/2000/svg" xmlns:xlink="http://www.w3.org/1999/xlink" 
	 viewBox="0 0 512.001 512.001" xml:space="preserve">
<g>
	<path style="fill:#2D527C;" d="M149.328,454.106C66.988,454.106,0,387.117,0,304.778S66.988,155.45,149.328,155.45
		c39.886,0,77.385,15.533,105.59,43.736c5.445,5.445,5.445,14.275,0,19.72c-5.445,5.445-14.275,5.447-19.72,0
		c-22.937-22.937-53.433-35.568-85.87-35.568c-66.962,0-121.439,54.477-121.439,121.439s54.477,121.439,121.439,121.439
		s121.439-54.477,121.439-121.439c0-7.701,6.244-13.944,13.944-13.944c7.7,0,13.944,6.243,13.944,13.944
		C298.656,387.117,231.667,454.106,149.328,454.106z"/>
	<path style="fill:#2D527C;" d="M149.328,396.602c-24.527,0-47.585-9.552-64.929-26.894c-5.445-5.445-5.445-14.275,0-19.721
		c5.445-5.445,14.275-5.445,19.721,0c12.076,12.076,28.131,18.727,45.207,18.727c35.254,0,63.936-28.682,63.936-63.936
		s-28.682-63.936-63.936-63.936s-63.936,28.681-63.936,63.936c0,7.701-6.243,13.944-13.944,13.944s-13.944-6.243-13.944-13.944
		c0-50.632,41.193-91.824,91.824-91.824c50.633,0,91.824,41.193,91.824,91.824S199.959,396.602,149.328,396.602z"/>
	<path style="fill:#2D527C;" d="M362.672,454.106c-39.886,0-77.385-15.533-105.589-43.735c-5.445-5.445-5.447-14.275,0-19.72
		c5.447-5.445,14.273-5.447,19.721,0c22.936,22.936,53.432,35.568,85.869,35.568c66.962,0,121.439-54.477,121.439-121.439
		S429.635,183.34,362.674,183.34s-121.439,54.477-121.439,121.439c0,7.701-6.243,13.944-13.944,13.944s-13.944-6.243-13.944-13.944
		c0-82.34,66.99-149.328,149.328-149.328s149.328,66.988,149.328,149.328S445.012,454.106,362.672,454.106z"/>
	<path style="fill:#2D527C;" d="M362.672,396.602c-50.633,0-91.824-41.193-91.824-91.824s41.191-91.824,91.824-91.824
		c24.528,0,47.586,9.552,64.929,26.894c5.445,5.445,5.445,14.275,0,19.72c-5.447,5.447-14.273,5.445-19.721,0
		c-12.074-12.076-28.13-18.726-45.207-18.726c-35.254,0-63.936,28.681-63.936,63.936s28.681,63.936,63.936,63.936
		s63.936-28.682,63.936-63.936c0-7.701,6.244-13.944,13.944-13.944s13.944,6.243,13.944,13.944
		C454.497,355.409,413.304,396.602,362.672,396.602z"/>
</g>
<path style="fill:#CEE8FA;" d="M185.31,71.84c-13.523,0-25.768,5.553-34.657,14.523c-8.889-8.97-21.134-14.523-34.657-14.523
	c-27.115,0-49.094,22.294-49.094,49.78c0,3.662,0.417,7.403,1.184,11.165c7.251,35.457,46.678,74.457,82.567,91.325
	c35.888-16.868,75.316-55.868,82.567-91.325c0.767-3.762,1.184-7.503,1.184-11.165C234.402,94.134,212.424,71.84,185.31,71.84z"/>
<path style="fill:#2D527C;" d="M150.652,238.054c-2.027,0-4.052-0.441-5.932-1.325c-37.334-17.549-81.669-58.963-90.296-101.152
	c-0.973-4.773-1.467-9.468-1.467-13.958c0-35.138,28.279-63.724,63.038-63.724c12.498,0,24.45,3.66,34.657,10.476
	c10.207-6.817,22.159-10.476,34.657-10.476c34.759,0,63.038,28.586,63.038,63.724c0,4.493-0.494,9.186-1.464,13.951
	c-8.629,42.195-52.963,83.61-90.298,101.159C154.705,237.612,152.679,238.054,150.652,238.054z M115.995,85.784
	c-19.381,0-35.149,16.076-35.149,35.835c0,2.622,0.304,5.441,0.902,8.378c6.063,29.65,39.282,62.501,68.903,78.495
	c29.62-15.993,62.84-48.845,68.906-78.501c0.597-2.928,0.901-5.746,0.901-8.371c0-19.759-15.768-35.835-35.149-35.835
	c-9.319,0-18.109,3.691-24.752,10.394c-2.619,2.642-6.184,4.128-9.905,4.128l0,0c-3.72,0-7.286-1.486-9.905-4.129
	C134.105,89.475,125.314,85.784,115.995,85.784z"/>
</svg>